<svg id="レイヤー_1" data-name="レイヤー 1" xmlns="http://www.w3.org/2000/svg" viewBox="0 0 297.2 56.14"><defs><style>.cls-1{fill:#fff;}</style></defs><path class="cls-1" d="M44.89,26.91H28v48H18.28v-48H1.37v-7.1H44.89Z" transform="translate(-1.37 -19.7)"/><path class="cls-1" d="M79.56,68.6a27,27,0,0,1-4.2,3.73,18.18,18.18,0,0,1-4,2.16,16.9,16.9,0,0,1-4.08,1,35.35,35.35,0,0,1-4.32.25,18.76,18.76,0,0,1-8.32-1.69A15.8,15.8,0,0,1,49,69.55a18.65,18.65,0,0,1-3.23-6.47,27.65,27.65,0,0,1-1-7.59,24.57,24.57,0,0,1,1.07-7.26A17.67,17.67,0,0,1,49,42.13a16.19,16.19,0,0,1,5.52-4.22,18.1,18.1,0,0,1,7.82-1.58,20.6,20.6,0,0,1,7,1.09,13.4,13.4,0,0,1,5,3.13,13,13,0,0,1,3,4.94,19.41,19.41,0,0,1,1,6.48c0,.92,0,1.86-.09,2.83a26.36,26.36,0,0,1-.37,3.05H54.32a12.54,12.54,0,0,0,.6,3.62,14.44,14.44,0,0,0,1.74,3.71,10.56,10.56,0,0,0,2.83,2.9,6.69,6.69,0,0,0,3.87,1.16A18,18,0,0,0,66.68,69,9.94,9.94,0,0,0,69.32,68a10.75,10.75,0,0,0,2.32-1.67A26.07,26.07,0,0,0,74,63.79ZM61.85,43.19a7.64,7.64,0,0,0-3.66.77,6.2,6.2,0,0,0-2.29,2,8.23,8.23,0,0,0-1.19,2.88,15.33,15.33,0,0,0-.35,3.34H68.88a23.8,23.8,0,0,0-.21-3.08,8.11,8.11,0,0,0-1-2.91,6,6,0,0,0-2.13-2.18A7,7,0,0,0,61.85,43.19Z" transform="translate(-1.37 -19.7)"/><path class="cls-1" d="M86.78,63.82c3.46,3.85,7.17,5.77,11.1,5.77a10.4,10.4,0,0,0,2.43-.27,5.55,5.55,0,0,0,1.93-.82,4.25,4.25,0,0,0,1.29-1.44A4.47,4.47,0,0,0,104,65a3.27,3.27,0,0,0-.38-1.58,4.48,4.48,0,0,0-1-1.24,8.6,8.6,0,0,0-1.41-.93,13,13,0,0,0-1.55-.68c-1-.4-1.91-.76-2.86-1.07s-1.91-.68-2.87-1.08q-.81-.27-2-.72a20.4,20.4,0,0,1-2.37-1.09A18.84,18.84,0,0,1,87.16,55,11,11,0,0,1,85,52.92a10.25,10.25,0,0,1-1.56-2.79,10,10,0,0,1-.6-3.6,8,8,0,0,1,1.23-4.43,10.5,10.5,0,0,1,3.27-3.19A16,16,0,0,1,92,37a21.92,21.92,0,0,1,5.33-.65,28.73,28.73,0,0,1,7.92,1,18.34,18.34,0,0,1,6.53,3.41l-4.15,6.4q-1.09-1.09-2.13-1.95a12.29,12.29,0,0,0-2.2-1.48,10.15,10.15,0,0,0-2.53-.93,14,14,0,0,0-3.13-.32,8.22,8.22,0,0,0-2.53.35,5.16,5.16,0,0,0-1.74,1,3.75,3.75,0,0,0-1,1.37A4.29,4.29,0,0,0,92,46.77a3,3,0,0,0,.46,1.64,4.6,4.6,0,0,0,1.18,1.19,8.13,8.13,0,0,0,1.63.88c.61.25,1.23.48,1.87.69,1,.35,2,.69,3,1l3,1,1.79.67a17.77,17.77,0,0,1,2.18,1,16.05,16.05,0,0,1,2.23,1.46,10.24,10.24,0,0,1,3.41,4.89,11.28,11.28,0,0,1,.55,3.71,8.48,8.48,0,0,1-1.3,4.66A11.15,11.15,0,0,1,108.52,73,17,17,0,0,1,103.69,75a22,22,0,0,1-5.56.7,38.07,38.07,0,0,1-4.78-.28,22.32,22.32,0,0,1-4.27-.95,18,18,0,0,1-3.85-1.81,17.31,17.31,0,0,1-3.45-2.87Z" transform="translate(-1.37 -19.7)"/><path class="cls-1" d="M115.85,38.83l5.59-1.9,2.39-9.81h6.75v9.81h9.32l-.85,6.54h-8.47V62.84a13.51,13.51,0,0,0,.23,2.7,5.27,5.27,0,0,0,.65,1.76,2.35,2.35,0,0,0,1.06,1,3.46,3.46,0,0,0,1.44.28,13.77,13.77,0,0,0,2.55-.26,20,20,0,0,0,3.18-.93l2.11,4.46a20.82,20.82,0,0,1-5,2.89,13.16,13.16,0,0,1-4.76.94,14.05,14.05,0,0,1-5.21-.82,7.83,7.83,0,0,1-3.25-2.36,8.79,8.79,0,0,1-1.68-3.71,22.74,22.74,0,0,1-.48-4.88V43.47h-5.59Z" transform="translate(-1.37 -19.7)"/><path class="cls-1" d="M143.66,36.93h10l7,25.38,6-25.38h5l6.89,25.35,5.91-25.35h10l-12.52,38h-6l-6.54-25-5.69,25H157.2Z" transform="translate(-1.37 -19.7)"/><path class="cls-1" d="M213.52,75.85a21.63,21.63,0,0,1-8.21-1.45,16.1,16.1,0,0,1-6-4.09,17.65,17.65,0,0,1-3.68-6.4,26.38,26.38,0,0,1-1.24-8.35,23,23,0,0,1,1.16-7.38,17.24,17.24,0,0,1,3.51-6.12A16.69,16.69,0,0,1,205,37.88a20.92,20.92,0,0,1,8.38-1.55,20.36,20.36,0,0,1,8.3,1.55,15.59,15.59,0,0,1,5.73,4.23,17.58,17.58,0,0,1,3.32,6.33,27.62,27.62,0,0,1,1.07,7.79,22.71,22.71,0,0,1-1.25,7.61,18.44,18.44,0,0,1-3.62,6.24,17.07,17.07,0,0,1-5.76,4.22A18.25,18.25,0,0,1,213.52,75.85Zm-.32-6.33a6.44,6.44,0,0,0,4-1.27A9.76,9.76,0,0,0,220,64.91a17.61,17.61,0,0,0,1.62-4.67,26.86,26.86,0,0,0,.52-5.31,22.45,22.45,0,0,0-.47-4.73,11.37,11.37,0,0,0-1.57-3.9,8,8,0,0,0-2.81-2.66,8.36,8.36,0,0,0-4.18-1,7.49,7.49,0,0,0-3.92,1,8.47,8.47,0,0,0-2.83,2.79,13.92,13.92,0,0,0-1.71,4.22,23.24,23.24,0,0,0-.58,5.29,22.48,22.48,0,0,0,.51,4.71,15.23,15.23,0,0,0,1.62,4.36A9.76,9.76,0,0,0,209,68.27,7,7,0,0,0,213.2,69.52Z" transform="translate(-1.37 -19.7)"/><path class="cls-1" d="M243.83,36.93a69.66,69.66,0,0,1,1.06,7.59,11.82,11.82,0,0,1,1.93-3,16.58,16.58,0,0,1,2.81-2.62A15.52,15.52,0,0,1,252.88,37a8.52,8.52,0,0,1,3.26-.7,12.06,12.06,0,0,1,2.88.25,9.25,9.25,0,0,1,1.51.49l-2,8.26a9.46,9.46,0,0,0-2.09-.72,9.62,9.62,0,0,0-1.92-.19A9.89,9.89,0,0,0,249,46,12.17,12.17,0,0,0,245.13,50l.07,24.86H236V43.33c0-.4,0-.91,0-1.52s0-1.23,0-1.86,0-1.22-.07-1.77-.08-1-.12-1.25Z" transform="translate(-1.37 -19.7)"/><path class="cls-1" d="M273.61,51l12.41-14h11.43L280.18,53.87l18.39,21h-11l-14-16.42V74.9h-9.14V19.7h9.14Z" transform="translate(-1.37 -19.7)"/></svg>